<svg width="36" height="36" viewBox="0 0 36 36" fill="none" xmlns="http://www.w3.org/2000/svg">
<rect width="36" height="36" rx="7.5" fill="#C4599F"/>
<path fill-rule="evenodd" clip-rule="evenodd" d="M20.2993 9.95533C21.6034 8.68156 23.7178 8.68156 25.0219 9.95533C26.326 11.2291 26.326 13.2943 25.0219 14.5681L18.5128 20.9259C18.1459 21.2842 17.9219 21.5031 17.6722 21.6933C17.378 21.9174 17.0597 22.1096 16.7228 22.2664C16.437 22.3995 16.1364 22.4973 15.6441 22.6575L13.3533 23.4034L12.8033 23.5825C12.311 23.7428 11.7682 23.6176 11.4013 23.2592C11.0344 22.9008 10.9062 22.3707 11.0703 21.8898L12.0173 19.115C12.1813 18.6343 12.2815 18.3406 12.4178 18.0614C12.5783 17.7324 12.775 17.4215 13.0045 17.1342C13.1992 16.8903 13.4233 16.6714 13.7902 16.3131L20.2993 9.95533ZM13.3236 22.0893L12.599 21.3816L13.2234 19.552C13.4052 19.0194 13.4803 18.8028 13.5784 18.6017C13.6987 18.355 13.8462 18.1219 14.0183 17.9065C14.1585 17.7309 14.3233 17.5684 14.7298 17.1714L19.7792 12.2394C19.9876 12.7501 20.3402 13.3665 20.9349 13.9473C21.5296 14.5281 22.1606 14.8726 22.6835 15.0762L17.6341 20.0081C17.2276 20.4052 17.0613 20.5661 16.8814 20.7031C16.6609 20.8711 16.4222 21.0152 16.1697 21.1327C15.9638 21.2286 15.7421 21.3019 15.1967 21.4795L13.3236 22.0893ZM23.708 14.0755C23.6018 14.0527 23.4691 14.0185 23.3182 13.9674C22.9034 13.8268 22.3576 13.5609 21.8441 13.0593C21.3305 12.5577 21.0583 12.0246 20.9144 11.6194C20.862 11.472 20.827 11.3424 20.8037 11.2387L21.2085 10.8433C22.0105 10.06 23.3108 10.06 24.1128 10.8433C24.9148 11.6267 24.9148 12.8967 24.1128 13.6801L23.708 14.0755ZM11 26.3721C11 26.0253 11.2878 25.7442 11.6429 25.7442H25.3571V27H11.6429C11.2878 27 11 26.7189 11 26.3721Z" fill="white"/>
</svg>
